<?xml version="1.0" encoding="UTF-8"?>
<svg id="a" data-name="Layer 1" xmlns="http://www.w3.org/2000/svg" viewBox="0 0 340 340">
  <defs>
    <style>
      .b {
        fill: #9ca3af;
      }
    </style>
  </defs>
  <path class="b" d="M169,.5C75.67,1.05.45,77.16,1,170.5c.55,93.33,76.66,168.55,170,168,93.33-.55,168.55-76.66,168-170C338.45,75.94,263.55,1.05,171,.5h-2ZM169,86.5c41.97.55,75.55,35.02,74.99,76.99-.55,41.97-35.02,75.55-76.99,74.99-41.97-.55-75.55-35.02-74.99-76.99.54-41.19,33.8-74.45,74.99-74.99h2ZM57,287c18-23.33,40.33-35,67-35h92c26.67,0,49,11.67,67,35-63.31,60.19-162.69,60.19-226,0"/>
</svg>