<?xml version="1.0" encoding="UTF-8"?>
<svg id="a" xmlns="http://www.w3.org/2000/svg" version="1.1" viewBox="0 0 300 80">
  <!-- Generator: Adobe Illustrator 29.0.1, SVG Export Plug-In . SVG Version: 2.1.0 Build 192)  -->
  <defs>
    <style>
      .st0 {
        fill: #4fba6f;
      }

      .st1 {
        fill: #0a2a40;
      }

      .st2 {
        isolation: isolate;
      }

      .st3 {
        fill: #ddd;
      }
    </style>
  </defs>
  <g>
    <circle class="st1" cx="46.1" cy="40.1" r="38"/>
    <g>
      <path class="st0" d="M62.4,58.9v-5.5c0,0-.3-22.4-.3-22.4,0,0,0,0,0,0-.5.7-1,1.5-1.7,2.3-3.5,4.4-6.4,8-8.8,11,0,0-.2,0-.3,0l-3.9-4.5c-.1-.1-.1-.3,0-.5.8-1.2,1.8-2.5,2.9-4,3.1-4.1,7-9.4,11.9-15.8,0,0,.2-.1.3-.1h7.3s0,0,0,0l.2,41.1s0,0,0,0h-7.3c-.1,0-.2,0-.2-.2v-1.6s0,0,0,0Z"/>
      <path class="st3" d="M29.6,38.7c2.8-3.8,5.5-7.4,8.3-10.9,2-2.5,3.9-5,6.2-8,0-.1.2-.2.4-.2,2.5,0,4.2,0,5.3,0,0,0,.1,0,.1,0,.1,0,.2.2,0,.4-1.2,1.9-2.4,3.7-3.7,5.5-4.8,6.8-6.8,10-9.5,13.4,0,0,0,0,0,.1l18.3,21c0,0,0,.2,0,.2-2.6,0-4,0-5.9,0-1,0-2,0-2.9,0-.2,0-.4,0-.5-.2-1.1-1.1-2-2-2.7-2.9-7.1-8.6-11.5-13.9-13.1-15.9,0,0-.1-.2-.3-.5,0,0-.1,0-.1,0,0,.6,0,1.2.1,1.9,0,4.7,0,10.6,0,17.6,0,0,0,.2-.2.2h-7.2c-.1,0-.2,0-.2-.2V19.7c0,0,0-.1.1-.1h7.3c0,0,.1,0,.1.1v19s0,0,0,0h0Z"/>
    </g>
  </g>
  <g>
    <g class="st2">
      <g class="st2">
        <path class="st1" d="M111.8,18.4h1.3c.5,0,1,0,1.3-.2s.6-.4.9-.7l8.3-10.5c.3-.4.7-.8,1.1-.9.4-.2.9-.3,1.4-.3h4.8l-10.1,12.5c-.3.4-.6.7-.9,1-.3.3-.6.5-.9.6.5.2.9.4,1.2.7.4.3.7.7,1.1,1.2l10.4,14.1h-5c-.7,0-1.2,0-1.5-.3-.3-.2-.6-.5-.8-.8l-8.5-11.1c-.3-.4-.6-.6-.9-.8-.3-.2-.8-.2-1.5-.2h-1.8v13.2h-5.6V5.7h5.6v12.6Z"/>
        <path class="st1" d="M165.2,35.9h-4.3c-.5,0-.9-.1-1.2-.4-.3-.2-.5-.5-.7-.9l-2.2-6.1h-12.5l-2.2,6.1c-.1.3-.3.6-.7.9-.3.3-.7.4-1.2.4h-4.3l11.8-30.1h5.7l11.8,30.1ZM145.7,24.5h9.6l-3.7-10c-.2-.4-.4-1-.6-1.6-.2-.6-.4-1.3-.6-2-.2.7-.4,1.4-.6,2s-.4,1.1-.6,1.6l-3.7,10Z"/>
        <path class="st1" d="M177.9,24.1v11.8h-5.6V5.8h9.2c2.1,0,3.8.2,5.3.6,1.5.4,2.7,1,3.6,1.8.9.8,1.6,1.7,2.1,2.7.4,1.1.7,2.2.7,3.5s-.1,2-.4,2.9c-.3.9-.7,1.7-1.3,2.5-.6.7-1.3,1.4-2.1,1.9-.8.6-1.8,1-2.8,1.3.7.4,1.3,1,1.8,1.7l7.5,11.1h-5c-.5,0-.9,0-1.2-.3-.3-.2-.6-.5-.9-.8l-6.3-9.6c-.2-.4-.5-.6-.8-.8-.3-.2-.7-.2-1.3-.2h-2.4ZM177.9,20.1h3.5c1.1,0,2-.1,2.8-.4.8-.3,1.4-.6,1.9-1.1.5-.5.9-1,1.1-1.7.2-.6.4-1.3.4-2.1,0-1.5-.5-2.7-1.5-3.5-1-.8-2.5-1.2-4.6-1.2h-3.6v10Z"/>
        <path class="st1" d="M209.4,35.9h-5.6V5.8h5.6v30.1Z"/>
        <path class="st1" d="M248.8,20.8c0,2.2-.4,4.2-1.1,6.1s-1.8,3.5-3.1,4.9c-1.3,1.4-2.9,2.4-4.8,3.2-1.9.8-3.9,1.2-6.2,1.2s-4.4-.4-6.2-1.2c-1.9-.8-3.5-1.8-4.8-3.2-1.3-1.4-2.4-3-3.1-4.9s-1.1-3.9-1.1-6.1.4-4.2,1.1-6.1,1.8-3.5,3.1-4.9c1.3-1.4,2.9-2.4,4.8-3.2,1.9-.8,4-1.2,6.2-1.2s4.3.4,6.2,1.2,3.5,1.8,4.8,3.2c1.3,1.4,2.4,3,3.1,4.9s1.1,3.9,1.1,6.1ZM243,20.8c0-1.7-.2-3.1-.7-4.4-.4-1.3-1.1-2.4-1.9-3.3-.8-.9-1.8-1.6-3-2.1-1.2-.5-2.5-.7-4-.7s-2.8.2-4,.7c-1.2.5-2.2,1.2-3,2.1-.8.9-1.5,2-1.9,3.3-.4,1.3-.7,2.8-.7,4.4s.2,3.1.7,4.4c.4,1.3,1.1,2.4,1.9,3.3.8.9,1.8,1.6,3,2.1,1.2.5,2.5.7,4,.7s2.8-.2,4-.7c1.2-.5,2.2-1.2,3-2.1.8-.9,1.4-2,1.9-3.3.4-1.3.7-2.8.7-4.4Z"/>
        <path class="st1" d="M273,11.2c-.2.3-.3.5-.5.6-.2.1-.4.2-.7.2s-.6-.1-.9-.3c-.3-.2-.8-.5-1.2-.7s-1-.5-1.7-.7c-.6-.2-1.4-.3-2.2-.3s-1.5,0-2,.3c-.6.2-1.1.4-1.5.8s-.7.7-.9,1.2c-.2.5-.3,1-.3,1.5s.2,1.3.6,1.8.9.9,1.6,1.2c.7.3,1.4.6,2.2.9.8.3,1.7.5,2.5.8.9.3,1.7.6,2.5,1,.8.4,1.6.9,2.2,1.5.7.6,1.2,1.3,1.6,2.2.4.9.6,1.9.6,3.2s-.2,2.6-.7,3.8-1.1,2.2-2,3.1c-.9.9-2,1.6-3.3,2.1-1.3.5-2.8.8-4.4.8s-1.9,0-2.8-.3-1.8-.5-2.7-.8-1.7-.8-2.4-1.2c-.7-.5-1.4-1-2-1.6l1.6-2.7c.2-.2.3-.4.6-.5.2-.1.5-.2.7-.2s.7.1,1.1.4.9.6,1.4.9c.5.3,1.2.7,1.9.9.7.3,1.6.4,2.7.4,1.6,0,2.8-.4,3.7-1.1.9-.8,1.3-1.8,1.3-3.3s-.2-1.4-.6-1.9c-.4-.5-.9-.9-1.6-1.3s-1.4-.6-2.2-.9c-.8-.2-1.7-.5-2.5-.8s-1.7-.6-2.5-1c-.8-.4-1.6-.9-2.2-1.5-.7-.6-1.2-1.4-1.6-2.3s-.6-2.1-.6-3.5.2-2.2.7-3.2c.4-1,1.1-2,1.9-2.8.8-.8,1.9-1.4,3.1-1.9,1.2-.5,2.6-.7,4.2-.7s3.4.3,4.9.8c1.5.6,2.8,1.3,3.8,2.3l-1.4,2.6Z"/>
      </g>
    </g>
    <g class="st2">
      <g class="st2">
        <path class="st1" d="M121.9,42.4c.2,0,.3,0,.4.1s.3.2.4.3c.1.1.3.3.4.5l15.8,20.1c0-.5,0-1-.1-1.4,0-.5,0-.9,0-1.3v-18.3h4.9v30.1h-2.9c-.4,0-.8,0-1.1-.2-.3-.1-.6-.4-.9-.7l-15.7-20c0,.4,0,.9,0,1.3,0,.4,0,.8,0,1.2v18.5h-4.9v-30.1h2.9c.2,0,.5,0,.6,0Z"/>
        <path class="st1" d="M172.5,42.4v4.5h-13.3v8.3h10.5v4.3h-10.5v8.5h13.3v4.5h-19v-30.1h19Z"/>
        <path class="st1" d="M188.4,57l-9.6-14.6h5.6c.4,0,.7,0,.8.2.2.1.3.3.5.5l6.8,11.1c0-.2.1-.4.2-.5,0-.2.2-.3.3-.5l6.3-9.9c.3-.5.7-.8,1.2-.8h5.4l-9.7,14.4,10,15.7h-5.6c-.4,0-.7,0-.9-.3-.2-.2-.4-.4-.6-.7l-7-11.5c0,.2-.1.3-.2.5s-.1.3-.2.4l-6.7,10.7c-.2.2-.3.5-.6.7s-.5.3-.8.3h-5.2l10-15.5Z"/>
        <path class="st1" d="M225.2,68c1.1,0,2-.2,2.9-.5.9-.4,1.6-.9,2.2-1.5.6-.7,1-1.4,1.4-2.4s.5-2,.5-3.1v-18h5.6v18c0,1.8-.3,3.4-.9,5-.6,1.5-1.4,2.8-2.5,3.9-1.1,1.1-2.4,2-3.9,2.6s-3.3.9-5.2.9-3.7-.3-5.2-.9-2.8-1.5-3.9-2.6c-1.1-1.1-1.9-2.4-2.5-3.9-.6-1.5-.9-3.2-.9-5v-18h5.6v18c0,1.2.2,2.2.5,3.1.3.9.8,1.7,1.3,2.4.6.7,1.3,1.2,2.2,1.5.9.4,1.8.5,2.9.5Z"/>
        <path class="st1" d="M263.3,47.9c-.2.3-.3.5-.5.6-.2.1-.4.2-.7.2s-.6-.1-.9-.3-.8-.5-1.2-.7-1-.5-1.7-.7c-.6-.2-1.4-.3-2.2-.3s-1.5,0-2,.3c-.6.2-1.1.4-1.5.8s-.7.7-.9,1.2c-.2.5-.3,1-.3,1.5s.2,1.3.6,1.8.9.9,1.6,1.2,1.4.6,2.2.9c.8.3,1.7.5,2.5.8.9.3,1.7.6,2.5,1s1.6.9,2.2,1.5,1.2,1.3,1.6,2.2.6,1.9.6,3.2-.2,2.6-.7,3.8-1.1,2.2-2,3.1c-.9.9-2,1.6-3.3,2.1-1.3.5-2.8.8-4.4.8s-1.9,0-2.8-.3c-.9-.2-1.8-.5-2.7-.8-.9-.3-1.7-.8-2.4-1.2-.7-.5-1.4-1-2-1.6l1.6-2.7c.2-.2.3-.4.6-.5.2-.1.5-.2.7-.2s.7.1,1.1.4c.4.3.9.6,1.4.9.5.3,1.2.7,1.9.9s1.6.4,2.7.4c1.6,0,2.8-.4,3.7-1.1.9-.8,1.3-1.8,1.3-3.3s-.2-1.4-.6-1.9c-.4-.5-.9-.9-1.6-1.3-.7-.3-1.4-.6-2.2-.9-.8-.2-1.7-.5-2.5-.8s-1.7-.6-2.5-1c-.8-.4-1.6-.9-2.2-1.5-.7-.6-1.2-1.4-1.6-2.3s-.6-2.1-.6-3.5.2-2.2.7-3.2c.4-1,1.1-2,1.9-2.8.8-.8,1.9-1.4,3.1-1.9,1.2-.5,2.6-.7,4.2-.7s3.4.3,4.9.8c1.5.6,2.8,1.3,3.8,2.3l-1.4,2.6Z"/>
      </g>
    </g>
  </g>
</svg>