<?xml version="1.0" encoding="UTF-8"?>
<svg id="a" data-name="Layer 1" xmlns="http://www.w3.org/2000/svg" viewBox="0 0 300 80">
  <defs>
    <style>
      .b {
        fill: #ddd;
      }

      .c, .d {
        fill: #0a2a40;
      }

      .e {
        fill: #4fba6f;
      }

      .d {
        font-family: Lato-Bold, Lato;
        font-size: 41.62px;
        font-weight: 700;
        letter-spacing: .09em;
      }
    </style>
  </defs>
  <g>
    <circle class="c" cx="46.07" cy="40.07" r="38"/>
    <g>
      <path class="e" d="M62.44,58.9l-.06-5.48-.2-22.38s-.04-.04-.06-.02c-.48.74-1.05,1.51-1.69,2.31-3.52,4.38-6.44,8.05-8.77,11.01-.07.09-.22.1-.29,0l-3.93-4.52c-.12-.13-.13-.33-.03-.47.82-1.19,1.79-2.53,2.89-4.02,3.09-4.15,7.05-9.41,11.88-15.77.07-.09.19-.15.3-.15h7.3s.08.04.08.08l.21,41.09s-.03.06-.06.06h-7.33c-.11,0-.2-.09-.2-.2l-.05-1.57Z"/>
      <path class="b" d="M29.65,38.7c2.77-3.77,5.54-7.4,8.3-10.89,1.95-2.47,3.87-5.05,6.17-7.97.1-.12.25-.2.41-.2,2.47-.02,4.22-.01,5.26.02.07,0,.12,0,.13.02.12.08.16.25.08.38-1.17,1.85-2.4,3.69-3.69,5.53-4.75,6.81-6.82,9.97-9.51,13.39-.03.04-.03.1,0,.14l18.28,21.02c.06.07.01.19-.09.19-2.62,0-3.97-.04-5.89.1-1.05.08-2,.1-2.86.07-.22,0-.4-.08-.53-.21-1.09-1.07-1.99-2.03-2.68-2.87-7.13-8.61-11.49-13.92-13.08-15.91,0,0-.12-.17-.33-.49-.04-.06-.14-.03-.13.05.06.57.09,1.2.1,1.9.03,4.74.03,10.6.01,17.57,0,.09-.08.17-.17.17h-7.2c-.1,0-.19-.08-.19-.19V19.74c0-.06.05-.11.11-.11h7.34c.06,0,.12.05.12.12v18.95s.02.03.03.01Z"/>
    </g>
  </g>
  <g>
    <text class="d" transform="translate(102.94 35.86)"><tspan x="0" y="0">KARIOS</tspan></text>
    <text class="d" transform="translate(115.31 72.49)"><tspan x="0" y="0">NEXUS</tspan></text>
  </g>
</svg>