<?xml version="1.0" encoding="UTF-8"?>
<svg id="a" xmlns="http://www.w3.org/2000/svg" version="1.1" viewBox="0 0 300 80">
  <!-- Generator: Adobe Illustrator 29.0.1, SVG Export Plug-In . SVG Version: 2.1.0 Build 192)  -->
  <defs>
    <style>
      .st0 {
        fill: #384152;
      }

      .st1 {
        isolation: isolate;
      }

      .st2 {
        fill: #4eba6f;
      }

      .st3 {
        fill: #4c5563;
      }
    </style>
  </defs>
  <g>
    <circle class="st0" cx="45.9" cy="40.1" r="38"/>
    <g>
      <path class="st2" d="M27,55.5s-.1,0-.1,0V18.5c0,0,0-.1.1-.1h6.4c0,0,.2,0,.2.1v21.2c0,0,.1.1.2,0,1.4-1.2,2.5-2.7,4-4.1,5.2-5,11-10.6,17.4-16.9.2-.2.5-.4.9-.4h9.6c.1,0,.2.2,0,.2-6.3,5.7-12.2,11.7-18.2,17.3-6.9,6.4-13.8,13.4-20.4,19.5h0Z"/>
      <path class="st2" d="M45.8,46.7l4.8-4.5s.1,0,.2,0l16.3,17.3c0,0,0,.2,0,.2h-9.1s0,0,0,0l-12-12.8s0-.1,0-.2h0Z"/>
    </g>
  </g>
  <g>
    <g class="st1">
      <g class="st1">
        <path class="st3" d="M111.6,18.3h1.3c.5,0,1,0,1.3-.2s.6-.4.9-.7l8.3-10.5c.3-.4.7-.8,1.1-.9.4-.2.9-.3,1.4-.3h4.8l-10.1,12.5c-.3.4-.6.7-.9,1-.3.3-.6.5-.9.6.5.2.9.4,1.2.7.4.3.7.7,1.1,1.2l10.4,14.1h-5c-.7,0-1.2,0-1.5-.3-.3-.2-.6-.5-.8-.8l-8.5-11.1c-.3-.4-.6-.6-.9-.8-.3-.2-.8-.2-1.5-.2h-1.8v13.2h-5.6V5.7h5.6v12.6Z"/>
        <path class="st3" d="M165.1,35.8h-4.3c-.5,0-.9-.1-1.2-.4-.3-.2-.5-.5-.7-.9l-2.2-6.1h-12.5l-2.2,6.1c-.1.3-.3.6-.7.9-.3.3-.7.4-1.2.4h-4.3l11.8-30.1h5.7l11.8,30.1ZM145.6,24.5h9.6l-3.7-10c-.2-.4-.4-1-.6-1.6-.2-.6-.4-1.3-.6-2-.2.7-.4,1.4-.6,2s-.4,1.1-.6,1.6l-3.7,10Z"/>
        <path class="st3" d="M177.7,24.1v11.8h-5.6V5.7h9.2c2.1,0,3.8.2,5.3.6,1.5.4,2.7,1,3.6,1.8.9.8,1.6,1.7,2.1,2.7.4,1.1.7,2.2.7,3.5s-.1,2-.4,2.9c-.3.9-.7,1.7-1.3,2.5-.6.7-1.3,1.4-2.1,1.9-.8.6-1.8,1-2.8,1.3.7.4,1.3,1,1.8,1.7l7.5,11.1h-5c-.5,0-.9,0-1.2-.3-.3-.2-.6-.5-.9-.8l-6.3-9.6c-.2-.4-.5-.6-.8-.8-.3-.2-.7-.2-1.3-.2h-2.4ZM177.7,20.1h3.5c1.1,0,2-.1,2.8-.4.8-.3,1.4-.6,1.9-1.1.5-.5.9-1,1.1-1.7.2-.6.4-1.3.4-2.1,0-1.5-.5-2.7-1.5-3.5-1-.8-2.5-1.2-4.6-1.2h-3.6v10Z"/>
        <path class="st3" d="M209.2,35.8h-5.6V5.7h5.6v30.1Z"/>
        <path class="st3" d="M248.6,20.8c0,2.2-.4,4.2-1.1,6.1s-1.8,3.5-3.1,4.9c-1.3,1.4-2.9,2.4-4.8,3.2-1.9.8-3.9,1.2-6.2,1.2s-4.4-.4-6.2-1.2c-1.9-.8-3.5-1.8-4.8-3.2-1.3-1.4-2.4-3-3.1-4.9s-1.1-3.9-1.1-6.1.4-4.2,1.1-6.1,1.8-3.5,3.1-4.9c1.3-1.4,2.9-2.4,4.8-3.2,1.9-.8,4-1.2,6.2-1.2s4.3.4,6.2,1.2,3.5,1.8,4.8,3.2c1.3,1.4,2.4,3,3.1,4.9s1.1,3.9,1.1,6.1ZM242.9,20.8c0-1.7-.2-3.1-.7-4.4-.4-1.3-1.1-2.4-1.9-3.3-.8-.9-1.8-1.6-3-2.1-1.2-.5-2.5-.7-4-.7s-2.8.2-4,.7c-1.2.5-2.2,1.2-3,2.1-.8.9-1.5,2-1.9,3.3-.4,1.3-.7,2.8-.7,4.4s.2,3.1.7,4.4c.4,1.3,1.1,2.4,1.9,3.3.8.9,1.8,1.6,3,2.1,1.2.5,2.5.7,4,.7s2.8-.2,4-.7c1.2-.5,2.2-1.2,3-2.1.8-.9,1.4-2,1.9-3.3.4-1.3.7-2.8.7-4.4Z"/>
        <path class="st3" d="M272.9,11.2c-.2.3-.3.5-.5.6-.2.1-.4.2-.7.2s-.6-.1-.9-.3c-.3-.2-.8-.5-1.2-.7s-1-.5-1.7-.7c-.6-.2-1.4-.3-2.2-.3s-1.5,0-2,.3c-.6.2-1.1.4-1.5.8s-.7.7-.9,1.2c-.2.5-.3,1-.3,1.5s.2,1.3.6,1.8.9.9,1.6,1.2c.7.3,1.4.6,2.2.9.8.3,1.7.5,2.5.8.9.3,1.7.6,2.5,1,.8.4,1.6.9,2.2,1.5.7.6,1.2,1.3,1.6,2.2.4.9.6,1.9.6,3.2s-.2,2.6-.7,3.8-1.1,2.2-2,3.1c-.9.9-2,1.6-3.3,2.1-1.3.5-2.8.8-4.4.8s-1.9,0-2.8-.3-1.8-.5-2.7-.8-1.7-.8-2.4-1.2c-.7-.5-1.4-1-2-1.6l1.6-2.7c.2-.2.3-.4.6-.5.2-.1.5-.2.7-.2s.7.1,1.1.4.9.6,1.4.9c.5.3,1.2.7,1.9.9.7.3,1.6.4,2.7.4,1.6,0,2.8-.4,3.7-1.1.9-.8,1.3-1.8,1.3-3.3s-.2-1.4-.6-1.9c-.4-.5-.9-.9-1.6-1.3s-1.4-.6-2.2-.9c-.8-.2-1.7-.5-2.5-.8s-1.7-.6-2.5-1c-.8-.4-1.6-.9-2.2-1.5-.7-.6-1.2-1.4-1.6-2.3s-.6-2.1-.6-3.5.2-2.2.7-3.2c.4-1,1.1-2,1.9-2.8.8-.8,1.9-1.4,3.1-1.9,1.2-.5,2.6-.7,4.2-.7s3.4.3,4.9.8c1.5.6,2.8,1.3,3.8,2.3l-1.4,2.6Z"/>
      </g>
    </g>
    <g class="st1">
      <g class="st1">
        <path class="st3" d="M111.5,72.5h-5.6v-30.1h5.6v30.1Z"/>
        <path class="st3" d="M123.5,42.4c.2,0,.3,0,.4.1s.3.2.4.3c.1.1.3.3.4.5l15.8,20.1c0-.5,0-1-.1-1.4,0-.5,0-.9,0-1.3v-18.3h4.9v30.1h-2.9c-.4,0-.8,0-1.1-.2-.3-.1-.6-.4-.9-.7l-15.7-20c0,.4,0,.9,0,1.3,0,.4,0,.8,0,1.2v18.5h-4.9v-30.1h2.9c.2,0,.5,0,.6,0Z"/>
        <path class="st3" d="M169.2,47.8c-.2.3-.3.5-.5.6-.2.1-.4.2-.7.2s-.6-.1-.9-.3-.8-.5-1.2-.7-1-.5-1.7-.7c-.6-.2-1.4-.3-2.2-.3s-1.5,0-2,.3c-.6.2-1.1.4-1.5.8s-.7.7-.9,1.2c-.2.5-.3,1-.3,1.5s.2,1.3.6,1.8.9.9,1.6,1.2,1.4.6,2.2.9c.8.3,1.7.5,2.5.8.9.3,1.7.6,2.5,1s1.6.9,2.2,1.5,1.2,1.3,1.6,2.2.6,1.9.6,3.2-.2,2.6-.7,3.8-1.1,2.2-2,3.1c-.9.9-2,1.6-3.3,2.1-1.3.5-2.8.8-4.4.8s-1.9,0-2.8-.3c-.9-.2-1.8-.5-2.7-.8-.9-.3-1.7-.8-2.4-1.2-.7-.5-1.4-1-2-1.6l1.6-2.7c.2-.2.3-.4.6-.5.2-.1.5-.2.7-.2s.7.1,1.1.4c.4.3.9.6,1.4.9.5.3,1.2.7,1.9.9s1.6.4,2.7.4c1.6,0,2.8-.4,3.7-1.1.9-.8,1.3-1.8,1.3-3.3s-.2-1.4-.6-1.9c-.4-.5-.9-.9-1.6-1.3-.7-.3-1.4-.6-2.2-.9-.8-.2-1.7-.5-2.5-.8s-1.7-.6-2.5-1c-.8-.4-1.6-.9-2.2-1.5-.7-.6-1.2-1.4-1.6-2.3s-.6-2.1-.6-3.5.2-2.2.7-3.2c.4-1,1.1-2,1.9-2.8.8-.8,1.9-1.4,3.1-1.9,1.2-.5,2.6-.7,4.2-.7s3.4.3,4.9.8c1.5.6,2.8,1.3,3.8,2.3l-1.4,2.6Z"/>
        <path class="st3" d="M183.3,72.5h-5.6v-30.1h5.6v30.1Z"/>
        <path class="st3" d="M205.6,68.3c1.3,0,2.4-.1,3.3-.3.9-.2,1.8-.5,2.7-.9v-5.5h-3.8c-.4,0-.6-.1-.9-.3s-.3-.4-.3-.7v-3.2h10v12.2c-.8.6-1.6,1-2.4,1.4s-1.7.7-2.6,1-1.9.5-3,.6c-1.1.1-2.2.2-3.5.2-2.2,0-4.2-.4-6.1-1.1-1.8-.8-3.4-1.8-4.8-3.2-1.3-1.4-2.4-3-3.2-4.9-.8-1.9-1.1-3.9-1.1-6.2s.4-4.3,1.1-6.2,1.8-3.5,3.1-4.9c1.4-1.4,3-2.4,4.9-3.2,1.9-.7,4.1-1.1,6.5-1.1s4.6.4,6.4,1.1c1.8.7,3.3,1.7,4.6,2.8l-1.6,2.5c-.3.5-.7.8-1.3.8s-.7-.1-1-.3c-.4-.3-.9-.5-1.4-.8s-1-.5-1.5-.7c-.6-.2-1.2-.4-1.9-.5-.7-.1-1.5-.2-2.4-.2-1.5,0-2.8.2-4,.8-1.2.5-2.2,1.2-3.1,2.1-.8.9-1.5,2-2,3.4-.5,1.3-.7,2.8-.7,4.4s.2,3.3.7,4.6,1.2,2.5,2,3.4,1.9,1.6,3.1,2.1c1.2.5,2.5.7,4,.7Z"/>
        <path class="st3" d="M248.9,72.5h-5.6v-13.2h-14.1v13.2h-5.6v-30.1h5.6v12.9h14.1v-12.9h5.6v30.1Z"/>
        <path class="st3" d="M277.8,42.4v4.6h-9.1v25.5h-5.6v-25.5h-9.1v-4.6h23.7Z"/>
      </g>
    </g>
  </g>
</svg>